<!-- Generated by IcoMoon.io -->
<svg version="1.1" xmlns="http://www.w3.org/2000/svg" width="32" height="32" viewBox="0 0 32 32">
<title>bootstrap</title>
<path fill="#563d7c" d="M32 26.667c0 2.933-2.4 5.333-5.333 5.333h-21.333c-2.933 0-5.333-2.4-5.333-5.333v-21.333c0-2.933 2.4-5.333 5.333-5.333h21.333c2.933 0 5.333 2.4 5.333 5.333v21.333z"></path>
<path fill="#fff" d="M8.695 6.954h9.072c1.673 0 3.017 0.382 4.026 1.15s1.516 1.924 1.516 3.477c0 0.941-0.23 1.746-0.69 2.416s-1.119 1.192-1.976 1.558v0.052c1.15 0.246 2.024 0.79 2.614 1.631 0.591 0.847 0.889 1.903 0.889 3.179 0 0.732-0.131 1.417-0.392 2.050-0.261 0.638-0.669 1.187-1.229 1.647s-1.271 0.826-2.144 1.098-1.909 0.408-3.111 0.408h-8.575v-18.667zM11.963 14.771h5.333c0.784 0 1.438-0.22 1.961-0.669s0.784-1.088 0.784-1.924c0-0.941-0.235-1.605-0.706-1.987s-1.15-0.575-2.039-0.575h-5.333v5.156zM11.963 22.954h5.778c0.993 0 1.767-0.256 2.311-0.774 0.549-0.512 0.826-1.244 0.826-2.186 0-0.925-0.272-1.631-0.826-2.133s-1.318-0.742-2.311-0.742h-5.778v5.835z"></path>
</svg>
