<!-- Generated by IcoMoon.io -->
<svg version="1.1" xmlns="http://www.w3.org/2000/svg" width="28" height="32" viewBox="0 0 28 32">
<title>git-square</title>
<path d="M8.756 21.781c0.756 0 1.844 0.131 1.844 1.119 0 0.969-0.869 1.175-1.688 1.175-0.769 0-1.931-0.125-1.931-1.125s0.981-1.169 1.775-1.169zM7.213 14.494c0 0.925 0.412 1.506 1.394 1.506 0.969 0 1.325-0.625 1.325-1.531 0.006-2.15-2.719-2.175-2.719 0.025zM28 5v22c0 1.656-1.344 3-3 3h-22c-1.656 0-3-1.344-3-3v-22c0-1.656 1.344-3 3-3h22c1.656 0 3 1.344 3 3zM12.938 10.856c-0.769 0.3-1.594 0.525-2.431 0.525-2.406-1.381-5.669 0.056-5.669 3.094 0 1.125 0.725 2.681 1.85 3.056v0.044c-0.838 0.369-1.069 2.256 0.044 2.938v0.044c-1.219 0.4-2.019 1.175-2.019 2.512 0 2.3 2.175 2.938 4.088 2.938 2.319 0 4.050-0.837 4.050-3.394 0-3.15-4.506-1.988-4.506-3.694 0-0.6 0.325-0.837 0.881-0.95 1.85-0.344 3.012-1.788 3.012-3.669 0-0.325-0.069-0.637-0.181-0.938 0.3-0.069 0.594-0.144 0.881-0.244v-2.263zM16.488 10.969h-2.475c0.081 0.662 0.069 8.913 0 9.719h2.475c-0.069-0.8-0.075-9.069 0-9.719zM16.769 7.638c0-0.838-0.625-1.638-1.506-1.638-0.894 0-1.537 0.781-1.537 1.638 0 0.85 0.656 1.619 1.537 1.619 0.856 0 1.506-0.781 1.506-1.619zM23.288 10.969h-2.275c0-0.613-0.025-1.225 0.069-1.844h-2.531c0.081 0.456 0.069 0.85 0.069 1.844h-1.069v2.119c0.744-0.119 0.756-0.044 1.069-0.044v0.044h-0.025v3.919c0 1.944 0.281 3.825 2.669 3.825 0.669 0 1.438-0.113 2.031-0.438v-2.188c-0.356 0.244-0.869 0.369-1.306 0.369-0.825 0-0.969-0.806-0.969-1.462v-4.075c1.419 0 2.275 0.044 2.275 0.044v-2.113z"></path>
</svg>
