<!-- Generated by IcoMoon.io -->
<svg version="1.1" xmlns="http://www.w3.org/2000/svg" width="28" height="32" viewBox="0 0 28 32">
<title>user</title>
<path d="M19.6 19c-1.794 0-2.656 1-5.6 1s-3.8-1-5.6-1c-4.638 0-8.4 3.762-8.4 8.4v1.6c0 1.656 1.344 3 3 3h22c1.656 0 3-1.344 3-3v-1.6c0-4.637-3.762-8.4-8.4-8.4zM25 29h-22v-1.6c0-2.975 2.425-5.4 5.4-5.4 0.912 0 2.394 1 5.6 1 3.231 0 4.681-1 5.6-1 2.975 0 5.4 2.425 5.4 5.4v1.6zM14 18c4.969 0 9-4.031 9-9s-4.031-9-9-9-9 4.031-9 9 4.031 9 9 9zM14 3c3.306 0 6 2.694 6 6s-2.694 6-6 6-6-2.694-6-6 2.694-6 6-6z"></path>
</svg>
