<!-- Generated by IcoMoon.io -->
<svg version="1.1" xmlns="http://www.w3.org/2000/svg" width="28" height="32" viewBox="0 0 28 32">
<title>git</title>
<path d="M1.175 13.856c0 1.581 1.012 3.75 2.594 4.281v0.063c-1.175 0.519-1.5 3.163 0.063 4.113v0.063c-1.706 0.563-2.831 1.644-2.831 3.512 0 3.219 3.050 4.113 5.719 4.113 3.25 0 5.669-1.169 5.669-4.75 0-4.406-6.313-2.781-6.313-5.175 0-0.844 0.45-1.169 1.231-1.331 2.594-0.481 4.219-2.5 4.219-5.137 0-0.456-0.094-0.887-0.25-1.313 0.419-0.094 0.825-0.206 1.231-0.344v-3.156c-1.075 0.425-2.231 0.738-3.406 0.738-3.362-1.938-7.925 0.081-7.925 4.325zM6.656 24.094c1.063 0 2.575 0.188 2.575 1.563 0 1.363-1.219 1.644-2.356 1.644-1.081 0-2.706-0.169-2.706-1.575 0.006-1.394 1.381-1.631 2.487-1.631zM6.456 16c-1.375 0-1.956-0.813-1.956-2.113 0-3.081 3.813-3.050 3.813-0.031 0 1.269-0.5 2.144-1.856 2.144zM27 19.094v3.063c-0.831 0.456-1.906 0.613-2.844 0.613-3.344 0-3.738-2.637-3.738-5.356v-5.481h0.031v-0.063c-0.438 0-0.456-0.1-1.5 0.063v-2.969h1.5c0-1.394 0.019-1.938-0.094-2.575h3.544c-0.125 0.862-0.094 1.719-0.094 2.575h3.188v2.969s-1.206-0.063-3.188-0.063v5.694c0 0.925 0.206 2.050 1.363 2.050 0.613 0 1.331-0.175 1.831-0.519zM17.875 4.294c0 1.169-0.906 2.263-2.113 2.263-1.238 0-2.156-1.075-2.156-2.263 0-1.206 0.906-2.294 2.156-2.294 1.238 0 2.113 1.125 2.113 2.294zM17.488 8.95c-0.113 0.912-0.1 12.488 0 13.613h-3.469c0.1-1.131 0.113-12.688 0-13.613h3.469z"></path>
</svg>
