<!-- Generated by IcoMoon.io -->
<svg version="1.1" xmlns="http://www.w3.org/2000/svg" width="32" height="32" viewBox="0 0 32 32">
<title>graphql</title>
<path fill="#e535ab" d="M4.597 24.213l-1.15-0.664 12.812-22.19 1.15 0.664-12.812 22.19z"></path>
<path fill="#e535ab" d="M3.184 21.776h25.624v1.328h-25.624v-1.328z"></path>
<path fill="#e535ab" d="M16.508 29.922l-12.817-7.4 0.664-1.15 12.817 7.4-0.664 1.15z"></path>
<path fill="#e535ab" d="M27.642 10.636l-12.817-7.4 0.664-1.15 12.817 7.4-0.664 1.15z"></path>
<path fill="#e535ab" d="M4.359 10.631l-0.664-1.15 12.817-7.4 0.664 1.15-12.817 7.4z"></path>
<path fill="#e535ab" d="M27.405 24.213l-12.812-22.19 1.15-0.664 12.812 22.19-1.15 0.664z"></path>
<path fill="#e535ab" d="M4.2 8.6h1.328v14.8h-1.328v-14.8z"></path>
<path fill="#e535ab" d="M26.472 8.6h1.328v14.8h-1.328v-14.8z"></path>
<path fill="#e535ab" d="M16.282 29.36l-0.58-1.005 11.147-6.436 0.58 1.005-11.147 6.436z"></path>
<path fill="#e535ab" d="M29.56 23.832c-0.768 1.336-2.48 1.792-3.816 1.024s-1.792-2.48-1.024-3.816c0.768-1.336 2.48-1.792 3.816-1.024 1.344 0.776 1.8 2.48 1.024 3.816z"></path>
<path fill="#e535ab" d="M7.272 10.96c-0.768 1.336-2.48 1.792-3.816 1.024s-1.792-2.48-1.024-3.816c0.768-1.336 2.48-1.792 3.816-1.024 1.336 0.776 1.792 2.48 1.024 3.816z"></path>
<path fill="#e535ab" d="M2.44 23.832c-0.768-1.336-0.312-3.040 1.024-3.816 1.336-0.768 3.040-0.312 3.816 1.024 0.768 1.336 0.312 3.040-1.024 3.816-1.344 0.768-3.048 0.312-3.816-1.024z"></path>
<path fill="#e535ab" d="M24.728 10.96c-0.768-1.336-0.312-3.040 1.024-3.816 1.336-0.768 3.040-0.312 3.816 1.024 0.768 1.336 0.312 3.040-1.024 3.816-1.336 0.768-3.048 0.312-3.816-1.024z"></path>
<path fill="#e535ab" d="M16 31.664c-1.544 0-2.792-1.248-2.792-2.792s1.248-2.792 2.792-2.792c1.544 0 2.792 1.248 2.792 2.792 0 1.536-1.248 2.792-2.792 2.792z"></path>
<path fill="#e535ab" d="M16 5.92c-1.544 0-2.792-1.248-2.792-2.792s1.248-2.792 2.792-2.792c1.544 0 2.792 1.248 2.792 2.792s-1.248 2.792-2.792 2.792z"></path>
</svg>
