<svg aria-hidden="true" style="position: absolute; width: 0; height: 0; overflow: hidden;" version="1.1" xmlns="http://www.w3.org/2000/svg" xmlns:xlink="http://www.w3.org/1999/xlink">
<defs>
<symbol id="icon-angular" viewBox="0 0 32 32">
<title>angular</title>
<path d="M13.824 17.331h4.352l-2.176-5.235z"></path>
<path d="M16 3.84v0 0l-11.917 4.25 1.818 15.757 10.099 5.594 10.099-5.594 1.818-15.757-11.917-4.25zM23.437 23.373h-2.778l-1.498-3.738h-6.323l-1.498 3.738h-2.778l7.437-16.704 7.437 16.704z"></path>
</symbol>
<symbol id="icon-graphql" viewBox="0 0 32 32">
<title>graphql</title>
<path fill="#e535ab" style="fill: var(--color1, #e535ab)" d="M4.597 24.213l-1.15-0.664 12.812-22.19 1.15 0.664-12.812 22.19z"></path>
<path fill="#e535ab" style="fill: var(--color1, #e535ab)" d="M3.184 21.776h25.624v1.328h-25.624v-1.328z"></path>
<path fill="#e535ab" style="fill: var(--color1, #e535ab)" d="M16.508 29.922l-12.817-7.4 0.664-1.15 12.817 7.4-0.664 1.15z"></path>
<path fill="#e535ab" style="fill: var(--color1, #e535ab)" d="M27.642 10.636l-12.817-7.4 0.664-1.15 12.817 7.4-0.664 1.15z"></path>
<path fill="#e535ab" style="fill: var(--color1, #e535ab)" d="M4.359 10.631l-0.664-1.15 12.817-7.4 0.664 1.15-12.817 7.4z"></path>
<path fill="#e535ab" style="fill: var(--color1, #e535ab)" d="M27.405 24.213l-12.812-22.19 1.15-0.664 12.812 22.19-1.15 0.664z"></path>
<path fill="#e535ab" style="fill: var(--color1, #e535ab)" d="M4.2 8.6h1.328v14.8h-1.328v-14.8z"></path>
<path fill="#e535ab" style="fill: var(--color1, #e535ab)" d="M26.472 8.6h1.328v14.8h-1.328v-14.8z"></path>
<path fill="#e535ab" style="fill: var(--color1, #e535ab)" d="M16.282 29.36l-0.58-1.005 11.147-6.436 0.58 1.005-11.147 6.436z"></path>
<path fill="#e535ab" style="fill: var(--color1, #e535ab)" d="M29.56 23.832c-0.768 1.336-2.48 1.792-3.816 1.024s-1.792-2.48-1.024-3.816c0.768-1.336 2.48-1.792 3.816-1.024 1.344 0.776 1.8 2.48 1.024 3.816z"></path>
<path fill="#e535ab" style="fill: var(--color1, #e535ab)" d="M7.272 10.96c-0.768 1.336-2.48 1.792-3.816 1.024s-1.792-2.48-1.024-3.816c0.768-1.336 2.48-1.792 3.816-1.024 1.336 0.776 1.792 2.48 1.024 3.816z"></path>
<path fill="#e535ab" style="fill: var(--color1, #e535ab)" d="M2.44 23.832c-0.768-1.336-0.312-3.040 1.024-3.816 1.336-0.768 3.040-0.312 3.816 1.024 0.768 1.336 0.312 3.040-1.024 3.816-1.344 0.768-3.048 0.312-3.816-1.024z"></path>
<path fill="#e535ab" style="fill: var(--color1, #e535ab)" d="M24.728 10.96c-0.768-1.336-0.312-3.040 1.024-3.816 1.336-0.768 3.040-0.312 3.816 1.024 0.768 1.336 0.312 3.040-1.024 3.816-1.336 0.768-3.048 0.312-3.816-1.024z"></path>
<path fill="#e535ab" style="fill: var(--color1, #e535ab)" d="M16 31.664c-1.544 0-2.792-1.248-2.792-2.792s1.248-2.792 2.792-2.792c1.544 0 2.792 1.248 2.792 2.792 0 1.536-1.248 2.792-2.792 2.792z"></path>
<path fill="#e535ab" style="fill: var(--color1, #e535ab)" d="M16 5.92c-1.544 0-2.792-1.248-2.792-2.792s1.248-2.792 2.792-2.792c1.544 0 2.792 1.248 2.792 2.792s-1.248 2.792-2.792 2.792z"></path>
</symbol>
<symbol id="icon-react" viewBox="0 0 45 32">
<title>react</title>
<path d="M35.817 15.938c0-1.747-2.188-3.403-5.542-4.429 0.774-3.419 0.43-6.139-1.086-7.010-0.349-0.204-0.758-0.301-1.204-0.301v1.199c0.247 0 0.446 0.048 0.613 0.14 0.731 0.419 1.048 2.016 0.801 4.069-0.059 0.505-0.156 1.037-0.274 1.58-1.054-0.258-2.204-0.457-3.413-0.586-0.726-0.994-1.478-1.898-2.236-2.688 1.752-1.629 3.397-2.521 4.515-2.521v-1.199c-1.478 0-3.413 1.054-5.37 2.881-1.957-1.817-3.892-2.86-5.37-2.86v1.199c1.113 0 2.763 0.887 4.515 2.505-0.753 0.79-1.505 1.688-2.22 2.682-1.215 0.129-2.365 0.328-3.419 0.591-0.124-0.538-0.215-1.059-0.28-1.559-0.253-2.053 0.059-3.65 0.785-4.075 0.161-0.097 0.371-0.14 0.618-0.14v-1.199c-0.452 0-0.86 0.097-1.215 0.301-1.511 0.871-1.849 3.585-1.070 6.993-3.344 1.032-5.521 2.682-5.521 4.424 0 1.747 2.188 3.403 5.542 4.429-0.774 3.419-0.43 6.139 1.086 7.010 0.349 0.204 0.758 0.301 1.209 0.301 1.478 0 3.413-1.054 5.37-2.881 1.957 1.817 3.892 2.86 5.37 2.86 0.452 0 0.86-0.097 1.215-0.301 1.511-0.871 1.849-3.585 1.070-6.993 3.333-1.027 5.51-2.682 5.51-4.424zM28.818 12.353c-0.199 0.693-0.446 1.408-0.726 2.123-0.22-0.43-0.452-0.86-0.704-1.29-0.247-0.43-0.511-0.849-0.774-1.258 0.763 0.113 1.5 0.253 2.204 0.425zM26.356 18.078c-0.419 0.726-0.849 1.414-1.295 2.053-0.801 0.070-1.613 0.108-2.43 0.108-0.812 0-1.623-0.038-2.419-0.102-0.446-0.64-0.882-1.322-1.301-2.043-0.409-0.704-0.779-1.419-1.118-2.139 0.333-0.72 0.71-1.441 1.113-2.145 0.419-0.726 0.849-1.414 1.295-2.053 0.801-0.070 1.613-0.107 2.43-0.107 0.812 0 1.623 0.038 2.419 0.102 0.446 0.64 0.882 1.322 1.301 2.043 0.409 0.704 0.779 1.419 1.118 2.139-0.339 0.72-0.71 1.441-1.113 2.145zM28.092 17.379c0.29 0.72 0.538 1.441 0.742 2.139-0.704 0.172-1.446 0.317-2.215 0.43 0.263-0.414 0.527-0.839 0.774-1.274 0.247-0.43 0.478-0.865 0.699-1.295zM22.641 23.114c-0.5-0.516-1-1.091-1.494-1.72 0.484 0.021 0.978 0.038 1.478 0.038 0.505 0 1.005-0.011 1.494-0.038-0.484 0.629-0.984 1.204-1.478 1.72zM18.642 19.948c-0.763-0.113-1.5-0.253-2.204-0.425 0.199-0.693 0.446-1.408 0.726-2.123 0.22 0.43 0.452 0.86 0.704 1.29s0.511 0.849 0.774 1.258zM22.614 8.762c0.5 0.516 1 1.091 1.494 1.72-0.484-0.021-0.978-0.038-1.478-0.038-0.505 0-1.005 0.011-1.494 0.038 0.484-0.629 0.984-1.204 1.478-1.72zM18.637 11.928c-0.263 0.414-0.527 0.839-0.774 1.274-0.247 0.43-0.478 0.86-0.699 1.29-0.29-0.72-0.538-1.441-0.742-2.139 0.704-0.167 1.446-0.312 2.215-0.425zM13.772 18.658c-1.903-0.812-3.134-1.876-3.134-2.72s1.231-1.914 3.134-2.72c0.462-0.199 0.968-0.376 1.489-0.543 0.306 1.054 0.71 2.15 1.209 3.274-0.495 1.118-0.892 2.209-1.193 3.258-0.532-0.167-1.037-0.349-1.505-0.548zM16.664 26.34c-0.731-0.419-1.048-2.016-0.801-4.069 0.059-0.505 0.156-1.037 0.274-1.58 1.054 0.258 2.204 0.457 3.413 0.586 0.726 0.994 1.478 1.898 2.236 2.688-1.752 1.629-3.397 2.521-4.515 2.521-0.242-0.005-0.446-0.054-0.607-0.145zM29.414 22.244c0.253 2.053-0.059 3.65-0.785 4.075-0.161 0.097-0.371 0.14-0.618 0.14-1.113 0-2.763-0.887-4.515-2.505 0.753-0.79 1.505-1.688 2.22-2.682 1.215-0.129 2.365-0.328 3.419-0.591 0.124 0.543 0.22 1.064 0.28 1.564zM31.484 18.658c-0.462 0.199-0.968 0.376-1.489 0.543-0.306-1.054-0.71-2.15-1.209-3.274 0.495-1.118 0.892-2.209 1.193-3.258 0.532 0.167 1.037 0.349 1.511 0.548 1.903 0.812 3.134 1.876 3.134 2.72-0.005 0.844-1.236 1.914-3.139 2.72z"></path>
<path d="M25.082 15.938c0 1.357-1.1 2.457-2.457 2.457s-2.457-1.1-2.457-2.457c0-1.357 1.1-2.457 2.457-2.457s2.457 1.1 2.457 2.457z"></path>
</symbol>
<symbol id="icon-redux" viewBox="0 0 32 32">
<title>redux</title>
<path d="M20.992 20.928c0.928-0.096 1.632-0.896 1.6-1.856s-0.832-1.728-1.792-1.728h-0.064c-0.992 0.032-1.76 0.864-1.728 1.856 0.032 0.48 0.224 0.896 0.512 1.184-1.088 2.144-2.752 3.712-5.248 5.024-1.696 0.896-3.456 1.216-5.216 0.992-1.44-0.192-2.56-0.832-3.264-1.888-1.024-1.568-1.12-3.264-0.256-4.96 0.608-1.216 1.568-2.112 2.176-2.56-0.128-0.416-0.32-1.12-0.416-1.632-4.64 3.36-4.16 7.904-2.752 10.048 1.056 1.6 3.2 2.592 5.568 2.592 0.64 0 1.28-0.064 1.92-0.224 4.096-0.8 7.2-3.232 8.96-6.848z"></path>
<path d="M26.624 16.96c-2.432-2.848-6.016-4.416-10.112-4.416h-0.512c-0.288-0.576-0.896-0.96-1.568-0.96h-0.064c-0.992 0.032-1.76 0.864-1.728 1.856 0.032 0.96 0.832 1.728 1.792 1.728h0.064c0.704-0.032 1.312-0.48 1.568-1.088h0.576c2.432 0 4.736 0.704 6.816 2.080 1.6 1.056 2.752 2.432 3.392 4.096 0.544 1.344 0.512 2.656-0.064 3.776-0.896 1.696-2.4 2.624-4.384 2.624-1.28 0-2.496-0.384-3.136-0.672-0.352 0.32-0.992 0.832-1.44 1.152 1.376 0.64 2.784 0.992 4.128 0.992 3.072 0 5.344-1.696 6.208-3.392 0.928-1.856 0.864-5.056-1.536-7.776z"></path>
<path d="M10.368 21.472c0.032 0.96 0.832 1.728 1.792 1.728h0.064c0.992-0.032 1.76-0.864 1.728-1.856-0.032-0.96-0.832-1.728-1.792-1.728h-0.064c-0.064 0-0.16 0-0.224 0.032-1.312-2.176-1.856-4.544-1.664-7.104 0.128-1.92 0.768-3.584 1.888-4.96 0.928-1.184 2.72-1.76 3.936-1.792 3.392-0.064 4.832 4.16 4.928 5.856 0.416 0.096 1.12 0.32 1.6 0.48-0.384-5.184-3.584-7.872-6.656-7.872-2.88 0-5.536 2.080-6.592 5.152-1.472 4.096-0.512 8.032 1.28 11.136-0.16 0.224-0.256 0.576-0.224 0.928z"></path>
</symbol>
<symbol id="icon-address-book" viewBox="0 0 32 32">
<title>address-book</title>
<path d="M6 0v32h24v-32h-24zM18 8.010c2.203 0 3.99 1.786 3.99 3.99s-1.786 3.99-3.99 3.99-3.99-1.786-3.99-3.99 1.786-3.99 3.99-3.99v0zM24 24h-12v-2c0-2.209 1.791-4 4-4v0h4c2.209 0 4 1.791 4 4v2z"></path>
<path d="M2 2h3v6h-3v-6z"></path>
<path d="M2 10h3v6h-3v-6z"></path>
<path d="M2 18h3v6h-3v-6z"></path>
<path d="M2 26h3v6h-3v-6z"></path>
</symbol>
<symbol id="icon-angle-right" viewBox="0 0 16 32">
<title>angle-right</title>
<path d="M14.019 17.063l-8.5 8.5c-0.588 0.587-1.538 0.587-2.119 0l-1.413-1.413c-0.587-0.587-0.587-1.538 0-2.119l6.025-6.025-6.025-6.025c-0.587-0.588-0.587-1.537 0-2.119l1.406-1.425c0.587-0.588 1.537-0.588 2.119 0l8.5 8.5c0.594 0.588 0.594 1.538 0.006 2.125z"></path>
</symbol>
<symbol id="icon-bootstrap" viewBox="0 0 32 32">
<title>bootstrap</title>
<path fill="#563d7c" style="fill: var(--color2, #563d7c)" d="M32 26.667c0 2.933-2.4 5.333-5.333 5.333h-21.333c-2.933 0-5.333-2.4-5.333-5.333v-21.333c0-2.933 2.4-5.333 5.333-5.333h21.333c2.933 0 5.333 2.4 5.333 5.333v21.333z"></path>
<path fill="#fff" style="fill: var(--color3, #fff)" d="M8.695 6.954h9.072c1.673 0 3.017 0.382 4.026 1.15s1.516 1.924 1.516 3.477c0 0.941-0.23 1.746-0.69 2.416s-1.119 1.192-1.976 1.558v0.052c1.15 0.246 2.024 0.79 2.614 1.631 0.591 0.847 0.889 1.903 0.889 3.179 0 0.732-0.131 1.417-0.392 2.050-0.261 0.638-0.669 1.187-1.229 1.647s-1.271 0.826-2.144 1.098-1.909 0.408-3.111 0.408h-8.575v-18.667zM11.963 14.771h5.333c0.784 0 1.438-0.22 1.961-0.669s0.784-1.088 0.784-1.924c0-0.941-0.235-1.605-0.706-1.987s-1.15-0.575-2.039-0.575h-5.333v5.156zM11.963 22.954h5.778c0.993 0 1.767-0.256 2.311-0.774 0.549-0.512 0.826-1.244 0.826-2.186 0-0.925-0.272-1.631-0.826-2.133s-1.318-0.742-2.311-0.742h-5.778v5.835z"></path>
</symbol>
<symbol id="icon-briefcase" viewBox="0 0 32 32">
<title>briefcase</title>
<path d="M30 8h-8v-2c0-1.1-0.9-2-2-2h-8c-1.1 0-2 0.9-2 2v2h-8c-1.1 0-2 0.9-2 2v18c0 1.1 0.9 2 2 2h28c1.1 0 2-0.9 2-2v-18c0-1.1-0.9-2-2-2zM12 6.004c0.001-0.001 0.002-0.003 0.004-0.004h7.993c0.001 0.001 0.003 0.002 0.004 0.004v1.996h-8v-1.996zM30 16h-4v3c0 0.55-0.45 1-1 1h-2c-0.55 0-1-0.45-1-1v-3h-12v3c0 0.55-0.45 1-1 1h-2c-0.55 0-1-0.45-1-1v-3h-4v-2h28v2z"></path>
</symbol>
<symbol id="icon-check" viewBox="0 0 32 32">
<title>check</title>
<path d="M10.869 27.463l-10.4-10.4c-0.625-0.625-0.625-1.638 0-2.263l2.263-2.263c0.625-0.625 1.638-0.625 2.263 0l7.006 7.006 15.006-15.006c0.625-0.625 1.638-0.625 2.263 0l2.263 2.263c0.625 0.625 0.625 1.638 0 2.263l-18.4 18.4c-0.625 0.625-1.638 0.625-2.263 0z"></path>
</symbol>
<symbol id="icon-chevron-right" viewBox="0 0 20 32">
<title>chevron-right</title>
<path d="M17.842 17.061l-12.146 12.146c-0.586 0.586-1.536 0.586-2.121 0l-1.417-1.417c-0.585-0.585-0.586-1.533-0.002-2.119l9.626-9.672-9.626-9.672c-0.583-0.586-0.582-1.534 0.002-2.119l1.417-1.417c0.586-0.586 1.536-0.586 2.121 0l12.146 12.146c0.586 0.586 0.586 1.536 0 2.121z"></path>
</symbol>
<symbol id="icon-coin-dollar" viewBox="0 0 32 32">
<title>coin-dollar</title>
<path d="M15 2c-8.284 0-15 6.716-15 15s6.716 15 15 15c8.284 0 15-6.716 15-15s-6.716-15-15-15zM15 29c-6.627 0-12-5.373-12-12s5.373-12 12-12c6.627 0 12 5.373 12 12s-5.373 12-12 12zM16 16v-4h4v-2h-4v-2h-2v2h-4v8h4v4h-4v2h4v2h2v-2h4v-8h-4zM14 16h-2v-4h2v4zM18 22h-2v-4h2v4z"></path>
</symbol>
<symbol id="icon-compass" viewBox="0 0 32 32">
<title>compass</title>
<path d="M17 32c-0.072 0-0.144-0.008-0.217-0.024-0.458-0.102-0.783-0.507-0.783-0.976v-15h-15c-0.469 0-0.875-0.326-0.976-0.783s0.129-0.925 0.553-1.123l30-14c0.381-0.178 0.833-0.098 1.13 0.199s0.377 0.749 0.199 1.13l-14 30c-0.167 0.358-0.524 0.577-0.906 0.577zM5.508 14h11.492c0.552 0 1 0.448 1 1v11.492l10.931-23.423-23.423 10.931z"></path>
</symbol>
<symbol id="icon-css3-alt" viewBox="0 0 24 32">
<title>css3-alt</title>
<path d="M0 2l2.181 24.738 9.819 3.262 9.819-3.262 2.181-24.738h-24zM19.569 7l-0.3 2.956-7.225 3.088h6.969l-0.8 9.162-6.137 1.794-6.175-1.825-0.4-4.619h3.056l0.2 2.394 3.287 0.831 3.419-0.962 0.231-3.85-10.406-0.031-0.225-2.894 7.412-3.088h-7.681l-0.362-2.956h15.137z"></path>
</symbol>
<symbol id="icon-css3" viewBox="0 0 32 32">
<title>css3</title>
<path d="M30 2l-4 23-13.956 5-12.044-5 1.225-5.925h5.125l-0.5 2.538 7.275 2.775 8.381-2.775 1.175-6.069h-20.837l1-5.125h20.856l0.656-3.294h-20.837l1.019-5.125h25.462z"></path>
</symbol>
<symbol id="icon-embed2" viewBox="0 0 40 32">
<title>embed2</title>
<path d="M26 23l3 3 10-10-10-10-3 3 7 7z"></path>
<path d="M14 9l-3-3-10 10 10 10 3-3-7-7z"></path>
<path d="M21.916 4.704l2.171 0.592-6 22.001-2.171-0.592 6-22.001z"></path>
</symbol>
<symbol id="icon-envelop" viewBox="0 0 32 32">
<title>envelop</title>
<path d="M29 4h-26c-1.65 0-3 1.35-3 3v20c0 1.65 1.35 3 3 3h26c1.65 0 3-1.35 3-3v-20c0-1.65-1.35-3-3-3zM12.461 17.199l-8.461 6.59v-15.676l8.461 9.086zM5.512 8h20.976l-10.488 7.875-10.488-7.875zM12.79 17.553l3.21 3.447 3.21-3.447 6.58 8.447h-19.579l6.58-8.447zM19.539 17.199l8.461-9.086v15.676l-8.461-6.59z"></path>
</symbol>
<symbol id="icon-envelope" viewBox="0 0 32 32">
<title>envelope</title>
<path d="M29 4h-26c-1.657 0-3 1.343-3 3v18c0 1.657 1.343 3 3 3h26c1.657 0 3-1.343 3-3v-18c0-1.657-1.343-3-3-3zM29 7v2.55c-1.401 1.141-3.636 2.916-8.412 6.656-1.053 0.828-3.138 2.817-4.588 2.794-1.45 0.023-3.536-1.966-4.588-2.794-4.775-3.739-7.010-5.514-8.412-6.656v-2.55h26zM3 25v-11.6c1.432 1.141 3.463 2.741 6.559 5.165 1.366 1.075 3.758 3.449 6.441 3.435 2.67 0.014 5.032-2.325 6.441-3.434 3.096-2.424 5.127-4.025 6.559-5.166v11.6h-26z"></path>
</symbol>
<symbol id="icon-facebook-f" viewBox="0 0 17 32">
<title>facebook-f</title>
<path d="M4.794 32v-14.313h-4.794v-5.688h4.794v-4.481c0-4.869 2.975-7.519 7.319-7.519 2.081 0 3.869 0.156 4.387 0.225v5.088h-3.012c-2.363 0-2.819 1.125-2.819 2.769v3.919h5.331l-0.731 5.688h-4.6v14.313z"></path>
</symbol>
<symbol id="icon-facebook-square" viewBox="0 0 28 32">
<title>facebook-square</title>
<path d="M28 5v22c0 1.656-1.344 3-3 3h-5.331v-11.075h3.788l0.544-4.225h-4.331v-2.7c0-1.225 0.337-2.056 2.094-2.056h2.238v-3.775c-0.387-0.050-1.712-0.169-3.262-0.169-3.225 0-5.438 1.969-5.438 5.587v3.119h-3.8v4.225h3.806v11.069h-12.306c-1.656 0-3-1.344-3-3v-22c0-1.656 1.344-3 3-3h22c1.656 0 3 1.344 3 3z"></path>
</symbol>
<symbol id="icon-facebook" viewBox="0 0 28 32">
<title>facebook</title>
<path d="M28 3.544v24.906c0 0.856-0.694 1.544-1.544 1.544h-7.137v-10.837h3.637l0.544-4.225h-4.188v-2.7c0-1.225 0.337-2.056 2.094-2.056h2.238v-3.781c-0.387-0.050-1.712-0.169-3.262-0.169-3.225 0-5.438 1.969-5.438 5.588v3.119h-3.65v4.225h3.65v10.844h-13.4c-0.85 0-1.544-0.694-1.544-1.544v-24.913c0-0.85 0.694-1.544 1.544-1.544h24.906c0.856 0 1.55 0.694 1.55 1.544z"></path>
</symbol>
<symbol id="icon-git-square" viewBox="0 0 28 32">
<title>git-square</title>
<path d="M8.756 21.781c0.756 0 1.844 0.131 1.844 1.119 0 0.969-0.869 1.175-1.688 1.175-0.769 0-1.931-0.125-1.931-1.125s0.981-1.169 1.775-1.169zM7.213 14.494c0 0.925 0.412 1.506 1.394 1.506 0.969 0 1.325-0.625 1.325-1.531 0.006-2.15-2.719-2.175-2.719 0.025zM28 5v22c0 1.656-1.344 3-3 3h-22c-1.656 0-3-1.344-3-3v-22c0-1.656 1.344-3 3-3h22c1.656 0 3 1.344 3 3zM12.938 10.856c-0.769 0.3-1.594 0.525-2.431 0.525-2.406-1.381-5.669 0.056-5.669 3.094 0 1.125 0.725 2.681 1.85 3.056v0.044c-0.838 0.369-1.069 2.256 0.044 2.938v0.044c-1.219 0.4-2.019 1.175-2.019 2.512 0 2.3 2.175 2.938 4.088 2.938 2.319 0 4.050-0.837 4.050-3.394 0-3.15-4.506-1.988-4.506-3.694 0-0.6 0.325-0.837 0.881-0.95 1.85-0.344 3.012-1.788 3.012-3.669 0-0.325-0.069-0.637-0.181-0.938 0.3-0.069 0.594-0.144 0.881-0.244v-2.263zM16.488 10.969h-2.475c0.081 0.662 0.069 8.913 0 9.719h2.475c-0.069-0.8-0.075-9.069 0-9.719zM16.769 7.638c0-0.838-0.625-1.638-1.506-1.638-0.894 0-1.537 0.781-1.537 1.638 0 0.85 0.656 1.619 1.537 1.619 0.856 0 1.506-0.781 1.506-1.619zM23.288 10.969h-2.275c0-0.613-0.025-1.225 0.069-1.844h-2.531c0.081 0.456 0.069 0.85 0.069 1.844h-1.069v2.119c0.744-0.119 0.756-0.044 1.069-0.044v0.044h-0.025v3.919c0 1.944 0.281 3.825 2.669 3.825 0.669 0 1.438-0.113 2.031-0.438v-2.188c-0.356 0.244-0.869 0.369-1.306 0.369-0.825 0-0.969-0.806-0.969-1.462v-4.075c1.419 0 2.275 0.044 2.275 0.044v-2.113z"></path>
</symbol>
<symbol id="icon-git" viewBox="0 0 28 32">
<title>git</title>
<path d="M1.175 13.856c0 1.581 1.012 3.75 2.594 4.281v0.063c-1.175 0.519-1.5 3.163 0.063 4.113v0.063c-1.706 0.563-2.831 1.644-2.831 3.512 0 3.219 3.050 4.113 5.719 4.113 3.25 0 5.669-1.169 5.669-4.75 0-4.406-6.313-2.781-6.313-5.175 0-0.844 0.45-1.169 1.231-1.331 2.594-0.481 4.219-2.5 4.219-5.137 0-0.456-0.094-0.887-0.25-1.313 0.419-0.094 0.825-0.206 1.231-0.344v-3.156c-1.075 0.425-2.231 0.738-3.406 0.738-3.362-1.938-7.925 0.081-7.925 4.325zM6.656 24.094c1.063 0 2.575 0.188 2.575 1.563 0 1.363-1.219 1.644-2.356 1.644-1.081 0-2.706-0.169-2.706-1.575 0.006-1.394 1.381-1.631 2.487-1.631zM6.456 16c-1.375 0-1.956-0.813-1.956-2.113 0-3.081 3.813-3.050 3.813-0.031 0 1.269-0.5 2.144-1.856 2.144zM27 19.094v3.063c-0.831 0.456-1.906 0.613-2.844 0.613-3.344 0-3.738-2.637-3.738-5.356v-5.481h0.031v-0.063c-0.438 0-0.456-0.1-1.5 0.063v-2.969h1.5c0-1.394 0.019-1.938-0.094-2.575h3.544c-0.125 0.862-0.094 1.719-0.094 2.575h3.188v2.969s-1.206-0.063-3.188-0.063v5.694c0 0.925 0.206 2.050 1.363 2.050 0.613 0 1.331-0.175 1.831-0.519zM17.875 4.294c0 1.169-0.906 2.263-2.113 2.263-1.238 0-2.156-1.075-2.156-2.263 0-1.206 0.906-2.294 2.156-2.294 1.238 0 2.113 1.125 2.113 2.294zM17.488 8.95c-0.113 0.912-0.1 12.488 0 13.613h-3.469c0.1-1.131 0.113-12.688 0-13.613h3.469z"></path>
</symbol>
<symbol id="icon-github-alt" viewBox="0 0 30 32">
<title>github-alt</title>
<path d="M11.631 20.544c0 1.306-0.681 3.444-2.294 3.444s-2.294-2.137-2.294-3.444 0.681-3.444 2.294-3.444 2.294 2.137 2.294 3.444zM30 17.387c0 1.994-0.2 4.106-1.094 5.938-2.369 4.787-8.881 4.675-13.544 4.675-4.738 0-11.637 0.169-14.1-4.675-0.912-1.813-1.262-3.944-1.262-5.938 0-2.619 0.869-5.094 2.594-7.1-0.325-0.988-0.481-2.025-0.481-3.050 0-1.344 0.306-2.019 0.913-3.237 2.831 0 4.644 0.563 6.8 2.25 1.813-0.431 3.675-0.625 5.544-0.625 1.688 0 3.387 0.181 5.025 0.575 2.125-1.669 3.938-2.2 6.738-2.2 0.613 1.219 0.913 1.894 0.913 3.237 0 1.025-0.163 2.044-0.481 3.013 1.719 2.025 2.438 4.519 2.438 7.137zM25.981 20.544c0-2.744-1.669-5.162-4.594-5.162-1.181 0-2.313 0.213-3.5 0.375-0.931 0.144-1.863 0.2-2.819 0.2-0.95 0-1.881-0.056-2.819-0.2-1.169-0.162-2.313-0.375-3.5-0.375-2.925 0-4.594 2.419-4.594 5.162 0 5.488 5.025 6.331 9.4 6.331h3.013c4.394 0 9.413-0.837 9.413-6.331zM20.819 17.1c-1.613 0-2.294 2.137-2.294 3.444s0.681 3.444 2.294 3.444 2.294-2.137 2.294-3.444-0.681-3.444-2.294-3.444z"></path>
</symbol>
<symbol id="icon-github-square" viewBox="0 0 28 32">
<title>github-square</title>
<path d="M25 2h-22c-1.656 0-3 1.344-3 3v22c0 1.656 1.344 3 3 3h22c1.656 0 3-1.344 3-3v-22c0-1.656-1.344-3-3-3zM17.331 25.981c-0.525 0.094-0.719-0.231-0.719-0.5 0-0.337 0.012-2.063 0.012-3.456 0-0.975-0.325-1.594-0.706-1.919 2.313-0.256 4.75-0.575 4.75-4.569 0-1.137-0.406-1.706-1.069-2.438 0.106-0.269 0.462-1.375-0.106-2.813-0.869-0.269-2.856 1.119-2.856 1.119-0.825-0.231-1.719-0.35-2.6-0.35s-1.775 0.119-2.6 0.35c0 0-1.988-1.387-2.856-1.119-0.569 1.431-0.219 2.537-0.106 2.813-0.662 0.731-0.975 1.3-0.975 2.438 0 3.975 2.331 4.313 4.644 4.569-0.3 0.269-0.569 0.731-0.662 1.394-0.594 0.269-2.112 0.731-3.019-0.869-0.569-0.988-1.594-1.069-1.594-1.069-1.013-0.012-0.069 0.637-0.069 0.637 0.675 0.313 1.15 1.512 1.15 1.512 0.606 1.856 3.506 1.231 3.506 1.231 0 0.869 0.012 2.281 0.012 2.538 0 0.269-0.188 0.594-0.719 0.5-4.125-1.381-7.013-5.306-7.013-9.894 0-5.738 4.388-10.094 10.125-10.094s10.387 4.356 10.387 10.094c0.006 4.587-2.794 8.519-6.919 9.894zM11.2 22.163c-0.119 0.025-0.231-0.025-0.244-0.106-0.012-0.094 0.069-0.175 0.188-0.2 0.119-0.012 0.231 0.038 0.244 0.119 0.019 0.081-0.063 0.163-0.188 0.188zM10.606 22.106c0 0.081-0.094 0.15-0.219 0.15-0.137 0.012-0.231-0.056-0.231-0.15 0-0.081 0.094-0.15 0.219-0.15 0.119-0.012 0.231 0.056 0.231 0.15zM9.75 22.038c-0.025 0.081-0.15 0.119-0.256 0.081-0.119-0.025-0.2-0.119-0.175-0.2s0.15-0.119 0.256-0.094c0.125 0.038 0.206 0.131 0.175 0.212zM8.981 21.7c-0.056 0.069-0.175 0.056-0.269-0.038-0.094-0.081-0.119-0.2-0.056-0.256 0.056-0.069 0.175-0.056 0.269 0.038 0.081 0.081 0.113 0.206 0.056 0.256zM8.412 21.131c-0.056 0.038-0.162 0-0.231-0.094s-0.069-0.2 0-0.244c0.069-0.056 0.175-0.012 0.231 0.081 0.069 0.094 0.069 0.206 0 0.256zM8.006 20.525c-0.056 0.056-0.15 0.025-0.219-0.038-0.069-0.081-0.081-0.175-0.025-0.219 0.056-0.056 0.15-0.025 0.219 0.038 0.069 0.081 0.081 0.175 0.025 0.219zM7.588 20.063c-0.025 0.056-0.106 0.069-0.175 0.025-0.081-0.038-0.119-0.106-0.094-0.163 0.025-0.038 0.094-0.056 0.175-0.025 0.081 0.044 0.119 0.113 0.094 0.163z"></path>
</symbol>
<symbol id="icon-github" viewBox="0 0 31 32">
<title>github</title>
<path d="M10.369 24.837c0 0.125-0.144 0.225-0.325 0.225-0.206 0.019-0.35-0.081-0.35-0.225 0-0.125 0.144-0.225 0.325-0.225 0.188-0.019 0.35 0.081 0.35 0.225zM8.425 24.556c-0.044 0.125 0.081 0.269 0.269 0.306 0.162 0.063 0.35 0 0.387-0.125s-0.081-0.269-0.269-0.325c-0.162-0.044-0.344 0.019-0.387 0.144zM11.188 24.45c-0.181 0.044-0.306 0.163-0.287 0.306 0.019 0.125 0.181 0.206 0.369 0.163 0.181-0.044 0.306-0.163 0.287-0.288-0.019-0.119-0.188-0.2-0.369-0.181zM15.3 0.5c-8.669 0-15.3 6.581-15.3 15.25 0 6.931 4.362 12.863 10.594 14.95 0.8 0.144 1.081-0.35 1.081-0.756 0-0.387-0.019-2.525-0.019-3.837 0 0-4.375 0.938-5.294-1.863 0 0-0.713-1.819-1.737-2.288 0 0-1.431-0.981 0.1-0.962 0 0 1.556 0.125 2.412 1.613 1.369 2.413 3.662 1.719 4.556 1.306 0.144-1 0.55-1.694 1-2.106-3.494-0.387-7.019-0.894-7.019-6.906 0-1.719 0.475-2.581 1.475-3.681-0.162-0.406-0.694-2.081 0.162-4.244 1.306-0.406 4.313 1.688 4.313 1.688 1.25-0.35 2.594-0.531 3.925-0.531s2.675 0.181 3.925 0.531c0 0 3.006-2.1 4.313-1.688 0.856 2.169 0.325 3.838 0.163 4.244 1 1.106 1.613 1.969 1.613 3.681 0 6.031-3.681 6.512-7.175 6.906 0.575 0.494 1.063 1.431 1.063 2.9 0 2.106-0.019 4.712-0.019 5.225 0 0.406 0.288 0.9 1.081 0.756 6.25-2.075 10.488-8.006 10.488-14.938 0-8.669-7.031-15.25-15.7-15.25zM6.075 22.056c-0.081 0.063-0.063 0.206 0.044 0.325 0.1 0.1 0.244 0.144 0.325 0.063 0.081-0.063 0.063-0.206-0.044-0.325-0.1-0.1-0.244-0.144-0.325-0.063zM5.4 21.55c-0.044 0.081 0.019 0.181 0.144 0.244 0.1 0.063 0.225 0.044 0.269-0.044 0.044-0.081-0.019-0.181-0.144-0.244-0.125-0.038-0.225-0.019-0.269 0.044zM7.425 23.775c-0.1 0.081-0.063 0.269 0.081 0.387 0.144 0.144 0.325 0.163 0.406 0.063 0.081-0.081 0.044-0.269-0.081-0.387-0.138-0.144-0.325-0.163-0.406-0.063zM6.713 22.856c-0.1 0.063-0.1 0.225 0 0.369s0.269 0.206 0.35 0.144c0.1-0.081 0.1-0.244 0-0.387-0.088-0.144-0.25-0.206-0.35-0.125z"></path>
</symbol>
<symbol id="icon-home" viewBox="0 0 36 32">
<title>home</title>
<path d="M30.5 19.544v8.956c0 0.831-0.669 1.5-1.5 1.5h-7.25c-0.413 0-0.75-0.337-0.75-0.75v-7c0-0.413-0.337-0.75-0.75-0.75h-4.5c-0.412 0-0.75 0.337-0.75 0.75v7c0 0.413-0.338 0.75-0.75 0.75h-7.25c-0.831 0-1.5-0.669-1.5-1.5v-8.956c0-0.225 0.1-0.438 0.275-0.581l11.75-9.675c0.275-0.225 0.675-0.225 0.956 0l11.75 9.675c0.169 0.144 0.269 0.356 0.269 0.581zM35.725 15.738l-5.225-4.306v-8.656c0-0.413-0.337-0.75-0.75-0.75h-3.5c-0.413 0-0.75 0.337-0.75 0.75v4.537l-5.594-4.606c-1.106-0.913-2.706-0.913-3.813 0l-15.819 13.031c-0.319 0.262-0.362 0.738-0.1 1.056l1.594 1.938c0.263 0.319 0.738 0.363 1.056 0.1l14.7-12.106c0.275-0.225 0.675-0.225 0.956 0l14.7 12.106c0.319 0.262 0.794 0.219 1.056-0.1l1.594-1.938c0.263-0.325 0.212-0.794-0.106-1.056z"></path>
</symbol>
<symbol id="icon-home3" viewBox="0 0 32 32">
<title>home3</title>
<path d="M32 19l-6-6v-9h-4v5l-6-6-16 16v1h4v10h10v-6h4v6h10v-10h4z"></path>
</symbol>
<symbol id="icon-html5" viewBox="0 0 24 32">
<title>html5</title>
<path d="M0 2l2.181 24.738 9.787 3.262 9.85-3.262 2.181-24.738h-24zM19.262 9.994h-11.488l0.256 3.088h10.975l-0.85 9.275-6.119 1.688v0.019h-0.069l-6.169-1.706-0.375-4.738h2.981l0.219 2.381 3.344 0.906 3.356-0.906 0.375-3.887h-10.431l-0.8-9.1h15.069l-0.275 2.981z"></path>
</symbol>
<symbol id="icon-images" viewBox="0 0 36 32">
<title>images</title>
<path d="M34 4h-2v-2c0-1.1-0.9-2-2-2h-28c-1.1 0-2 0.9-2 2v24c0 1.1 0.9 2 2 2h2v2c0 1.1 0.9 2 2 2h28c1.1 0 2-0.9 2-2v-24c0-1.1-0.9-2-2-2zM4 6v20h-1.996c-0.001-0.001-0.003-0.002-0.004-0.004v-23.993c0.001-0.001 0.002-0.003 0.004-0.004h27.993c0.001 0.001 0.003 0.002 0.004 0.004v1.996h-24c-1.1 0-2 0.9-2 2v0zM34 29.996c-0.001 0.001-0.002 0.003-0.004 0.004h-27.993c-0.001-0.001-0.003-0.002-0.004-0.004v-23.993c0.001-0.001 0.002-0.003 0.004-0.004h27.993c0.001 0.001 0.003 0.002 0.004 0.004v23.993z"></path>
<path d="M30 11c0 1.657-1.343 3-3 3s-3-1.343-3-3 1.343-3 3-3 3 1.343 3 3z"></path>
<path d="M32 28h-24v-4l7-12 8 10h2l7-6z"></path>
</symbol>
<symbol id="icon-instagram" viewBox="0 0 32 32">
<title>instagram</title>
<path d="M16 2.881c4.275 0 4.781 0.019 6.462 0.094 1.563 0.069 2.406 0.331 2.969 0.55 0.744 0.288 1.281 0.638 1.837 1.194 0.563 0.563 0.906 1.094 1.2 1.838 0.219 0.563 0.481 1.412 0.55 2.969 0.075 1.688 0.094 2.194 0.094 6.463s-0.019 4.781-0.094 6.463c-0.069 1.563-0.331 2.406-0.55 2.969-0.288 0.744-0.637 1.281-1.194 1.837-0.563 0.563-1.094 0.906-1.837 1.2-0.563 0.219-1.413 0.481-2.969 0.55-1.688 0.075-2.194 0.094-6.463 0.094s-4.781-0.019-6.463-0.094c-1.563-0.069-2.406-0.331-2.969-0.55-0.744-0.288-1.281-0.637-1.838-1.194-0.563-0.563-0.906-1.094-1.2-1.837-0.219-0.563-0.481-1.413-0.55-2.969-0.075-1.688-0.094-2.194-0.094-6.463s0.019-4.781 0.094-6.463c0.069-1.563 0.331-2.406 0.55-2.969 0.288-0.744 0.638-1.281 1.194-1.838 0.563-0.563 1.094-0.906 1.838-1.2 0.563-0.219 1.412-0.481 2.969-0.55 1.681-0.075 2.188-0.094 6.463-0.094zM16 0c-4.344 0-4.887 0.019-6.594 0.094-1.7 0.075-2.869 0.35-3.881 0.744-1.056 0.412-1.95 0.956-2.837 1.85-0.894 0.888-1.438 1.781-1.85 2.831-0.394 1.019-0.669 2.181-0.744 3.881-0.075 1.713-0.094 2.256-0.094 6.6s0.019 4.887 0.094 6.594c0.075 1.7 0.35 2.869 0.744 3.881 0.413 1.056 0.956 1.95 1.85 2.837 0.887 0.887 1.781 1.438 2.831 1.844 1.019 0.394 2.181 0.669 3.881 0.744 1.706 0.075 2.25 0.094 6.594 0.094s4.888-0.019 6.594-0.094c1.7-0.075 2.869-0.35 3.881-0.744 1.050-0.406 1.944-0.956 2.831-1.844s1.438-1.781 1.844-2.831c0.394-1.019 0.669-2.181 0.744-3.881 0.075-1.706 0.094-2.25 0.094-6.594s-0.019-4.887-0.094-6.594c-0.075-1.7-0.35-2.869-0.744-3.881-0.394-1.063-0.938-1.956-1.831-2.844-0.887-0.887-1.781-1.438-2.831-1.844-1.019-0.394-2.181-0.669-3.881-0.744-1.712-0.081-2.256-0.1-6.6-0.1v0z"></path>
<path d="M16 7.781c-4.537 0-8.219 3.681-8.219 8.219s3.681 8.219 8.219 8.219 8.219-3.681 8.219-8.219c0-4.537-3.681-8.219-8.219-8.219zM16 21.331c-2.944 0-5.331-2.387-5.331-5.331s2.387-5.331 5.331-5.331c2.944 0 5.331 2.387 5.331 5.331s-2.387 5.331-5.331 5.331z"></path>
<path d="M26.462 7.456c0 1.060-0.859 1.919-1.919 1.919s-1.919-0.859-1.919-1.919c0-1.060 0.859-1.919 1.919-1.919s1.919 0.859 1.919 1.919z"></path>
</symbol>
<symbol id="icon-js-square" viewBox="0 0 28 32">
<title>js-square</title>
<path d="M25 2h-22c-1.656 0-3 1.344-3 3v22c0 1.656 1.344 3 3 3h22c1.656 0 3-1.344 3-3v-22c0-1.656-1.344-3-3-3zM15.238 23.837c0 2.725-1.6 3.969-3.931 3.969-2.106 0-3.325-1.087-3.95-2.406l2.144-1.294c0.412 0.731 0.787 1.35 1.694 1.35 0.863 0 1.412-0.337 1.412-1.656v-8.944h2.631v8.981zM21.462 27.806c-2.444 0-4.025-1.163-4.794-2.688l2.144-1.238c0.563 0.919 1.3 1.6 2.594 1.6 1.087 0 1.788-0.544 1.788-1.3 0-0.9-0.712-1.219-1.919-1.75l-0.656-0.281c-1.9-0.806-3.156-1.825-3.156-3.969 0-1.975 1.506-3.475 3.85-3.475 1.675 0 2.875 0.581 3.738 2.106l-2.050 1.313c-0.45-0.806-0.938-1.125-1.694-1.125-0.769 0-1.256 0.488-1.256 1.125 0 0.788 0.488 1.106 1.619 1.6l0.656 0.281c2.238 0.956 3.494 1.938 3.494 4.137 0 2.363-1.863 3.663-4.356 3.663z"></path>
</symbol>
<symbol id="icon-js" viewBox="0 0 28 32">
<title>js</title>
<path d="M0 2v28h28v-28h-28zM15.238 23.837c0 2.725-1.6 3.969-3.931 3.969-2.106 0-3.325-1.087-3.95-2.406l2.144-1.294c0.412 0.731 0.787 1.35 1.694 1.35 0.863 0 1.412-0.337 1.412-1.656v-8.944h2.631v8.981zM21.462 27.806c-2.444 0-4.025-1.163-4.794-2.688l2.144-1.238c0.563 0.919 1.3 1.6 2.594 1.6 1.087 0 1.788-0.544 1.788-1.3 0-0.9-0.712-1.219-1.919-1.75l-0.656-0.281c-1.9-0.806-3.156-1.825-3.156-3.969 0-1.975 1.506-3.475 3.85-3.475 1.675 0 2.875 0.581 3.738 2.106l-2.050 1.313c-0.45-0.806-0.938-1.125-1.694-1.125-0.769 0-1.256 0.488-1.256 1.125 0 0.788 0.488 1.106 1.619 1.6l0.656 0.281c2.238 0.956 3.494 1.938 3.494 4.137 0 2.363-1.863 3.663-4.356 3.663z"></path>
</symbol>
<symbol id="icon-linkedin-in" viewBox="0 0 28 32">
<title>linkedin-in</title>
<path d="M6.269 30h-5.806v-18.694h5.806v18.694zM3.362 8.756c-1.856 0-3.362-1.537-3.362-3.394s1.506-3.362 3.362-3.362c1.856 0 3.362 1.506 3.362 3.362s-1.506 3.394-3.362 3.394zM28 30h-5.794v-9.1c0-2.169-0.044-4.95-3.019-4.95-3.019 0-3.481 2.356-3.481 4.794v9.256h-5.8v-18.694h5.569v2.55h0.081c0.775-1.469 2.669-3.019 5.494-3.019 5.875 0 6.956 3.869 6.956 8.894v10.269z"></path>
</symbol>
<symbol id="icon-linkedin" viewBox="0 0 28 32">
<title>linkedin</title>
<path d="M26 2h-24.006c-1.1 0-1.994 0.906-1.994 2.019v23.962c0 1.113 0.894 2.019 1.994 2.019h24.006c1.1 0 2-0.906 2-2.019v-23.962c0-1.112-0.9-2.019-2-2.019zM8.463 26h-4.15v-13.363h4.156v13.363zM6.388 10.813c-1.331 0-2.406-1.081-2.406-2.406s1.075-2.406 2.406-2.406c1.325 0 2.406 1.081 2.406 2.406 0 1.331-1.075 2.406-2.406 2.406zM24.019 26h-4.15v-6.5c0-1.55-0.031-3.544-2.156-3.544-2.162 0-2.494 1.688-2.494 3.431v6.613h-4.15v-13.363h3.981v1.825h0.056c0.556-1.050 1.912-2.156 3.931-2.156 4.2 0 4.981 2.769 4.981 6.369v7.325z"></path>
</symbol>
<symbol id="icon-location" viewBox="0 0 32 32">
<title>location</title>
<path d="M16 0c-5.523 0-10 4.477-10 10 0 10 10 22 10 22s10-12 10-22c0-5.523-4.477-10-10-10zM16 16c-3.314 0-6-2.686-6-6s2.686-6 6-6 6 2.686 6 6-2.686 6-6 6z"></path>
</symbol>
<symbol id="icon-mail" viewBox="0 0 32 32">
<title>mail</title>
<path d="M26.666 0h-21.332c-2.934 0-5.334 2.4-5.334 5.333v21.333c0 2.934 2.4 5.334 5.334 5.334h21.332c2.936 0 5.334-2.4 5.334-5.334v-21.333c0-2.934-2.398-5.333-5.334-5.333zM8 8h16c0.286 0 0.563 0.061 0.817 0.177l-8.817 10.286-8.817-10.287c0.254-0.116 0.531-0.177 0.817-0.177zM6 22v-12c0-0.042 0.002-0.084 0.004-0.125l5.864 6.842-5.8 5.8c-0.045-0.167-0.069-0.34-0.069-0.517zM24 24h-16c-0.177 0-0.35-0.024-0.517-0.069l5.691-5.691 2.826 3.297 2.826-3.297 5.691 5.691c-0.167 0.045-0.34 0.069-0.517 0.069zM26 22c0 0.177-0.024 0.35-0.069 0.517l-5.8-5.8 5.864-6.842c0.003 0.041 0.004 0.083 0.004 0.125v12z"></path>
</symbol>
<symbol id="icon-mail4" viewBox="0 0 32 32">
<title>mail4</title>
<path d="M16 0c-8.837 0-16 7.163-16 16s7.163 16 16 16 16-7.163 16-16-7.163-16-16-16zM8 8h16c0.286 0 0.563 0.061 0.817 0.177l-8.817 10.286-8.817-10.287c0.254-0.116 0.531-0.177 0.817-0.177zM6 22v-12c0-0.042 0.002-0.084 0.004-0.125l5.864 6.842-5.8 5.8c-0.045-0.167-0.069-0.34-0.069-0.517zM24 24h-16c-0.177 0-0.35-0.024-0.517-0.069l5.691-5.691 2.826 3.297 2.826-3.297 5.691 5.691c-0.167 0.045-0.34 0.069-0.517 0.069zM26 22c0 0.177-0.024 0.35-0.069 0.517l-5.8-5.8 5.865-6.842c0.003 0.041 0.004 0.083 0.004 0.125v12z"></path>
</symbol>
<symbol id="icon-node-js" viewBox="0 0 28 32">
<title>node-js</title>
<path d="M14 31.75c-0.419 0-0.844-0.113-1.213-0.325l-3.856-2.281c-0.575-0.325-0.294-0.438-0.106-0.5 0.769-0.269 0.925-0.325 1.744-0.794 0.088-0.050 0.2-0.031 0.287 0.025l2.963 1.756c0.106 0.063 0.256 0.063 0.356 0l11.544-6.663c0.106-0.063 0.175-0.188 0.175-0.313v-13.325c0-0.131-0.069-0.25-0.181-0.319l-11.537-6.656c-0.106-0.063-0.25-0.063-0.356 0l-11.531 6.662c-0.112 0.063-0.181 0.188-0.181 0.319v13.319c0 0.125 0.069 0.25 0.181 0.306l3.162 1.825c1.719 0.856 2.769-0.15 2.769-1.169v-13.15c0-0.188 0.15-0.331 0.338-0.331h1.463c0.181 0 0.338 0.144 0.338 0.331v13.156c0 2.288-1.25 3.6-3.419 3.6-0.669 0-1.194 0-2.656-0.725l-3.025-1.744c-0.75-0.431-1.212-1.238-1.212-2.106v-13.319c0-0.863 0.463-1.675 1.212-2.106l11.531-6.662c0.731-0.412 1.7-0.412 2.425 0l11.544 6.669c0.75 0.431 1.212 1.238 1.212 2.106v13.319c0 0.863-0.462 1.669-1.212 2.106l-11.544 6.662c-0.369 0.212-0.787 0.325-1.213 0.325zM23.319 18.619c0-2.494-1.688-3.156-5.231-3.625-3.588-0.475-3.95-0.719-3.95-1.556 0-0.694 0.306-1.619 2.962-1.619 2.369 0 3.244 0.512 3.606 2.113 0.031 0.15 0.169 0.262 0.325 0.262h1.5c0.094 0 0.181-0.037 0.244-0.106s0.094-0.162 0.087-0.256c-0.231-2.756-2.063-4.037-5.762-4.037-3.294 0-5.256 1.387-5.256 3.719 0 2.525 1.956 3.225 5.112 3.538 3.781 0.369 4.075 0.925 4.075 1.669 0 1.288-1.038 1.837-3.469 1.837-3.056 0-3.725-0.769-3.95-2.288-0.025-0.163-0.162-0.281-0.331-0.281h-1.494c-0.188 0-0.331 0.15-0.331 0.331 0 1.944 1.056 4.262 6.112 4.262 3.65-0.006 5.75-1.45 5.75-3.962z"></path>
</symbol>
<symbol id="icon-phone" viewBox="0 0 32 32">
<title>phone</title>
<path d="M22 20c-2 2-2 4-4 4s-4-2-6-4-4-4-4-6 2-2 4-4-4-8-6-8-6 6-6 6c0 4 4.109 12.109 8 16s12 8 16 8c0 0 6-4 6-6s-6-8-8-6z"></path>
</symbol>
<symbol id="icon-profile" viewBox="0 0 32 32">
<title>profile</title>
<path d="M27 0h-24c-1.65 0-3 1.35-3 3v26c0 1.65 1.35 3 3 3h24c1.65 0 3-1.35 3-3v-26c0-1.65-1.35-3-3-3zM26 28h-22v-24h22v24zM8 18h14v2h-14zM8 22h14v2h-14zM10 9c0-1.657 1.343-3 3-3s3 1.343 3 3c0 1.657-1.343 3-3 3s-3-1.343-3-3zM15 12h-4c-1.65 0-3 0.9-3 2v2h10v-2c0-1.1-1.35-2-3-2z"></path>
</symbol>
<symbol id="icon-sass" viewBox="0 0 40 32">
<title>sass</title>
<path d="M34.444 18.244c-1.4 0.006-2.613 0.344-3.625 0.844-0.369-0.744-0.75-1.394-0.813-1.881-0.075-0.569-0.156-0.906-0.069-1.581s0.481-1.631 0.475-1.7c-0.006-0.069-0.087-0.412-0.894-0.419s-1.5 0.156-1.581 0.369c-0.081 0.213-0.238 0.694-0.331 1.194-0.144 0.731-1.613 3.344-2.444 4.706-0.275-0.531-0.506-1-0.556-1.375-0.075-0.569-0.156-0.906-0.069-1.581s0.481-1.631 0.475-1.7c-0.006-0.069-0.087-0.412-0.894-0.419s-1.5 0.156-1.581 0.369c-0.081 0.213-0.169 0.713-0.331 1.194s-2.119 4.831-2.631 5.963c-0.262 0.575-0.488 1.038-0.65 1.35s-0.012 0.019-0.025 0.056c-0.137 0.269-0.219 0.419-0.219 0.419v0.006c-0.106 0.2-0.225 0.381-0.281 0.381-0.038 0-0.119-0.525 0.019-1.244 0.294-1.512 0.988-3.863 0.981-3.944-0.006-0.044 0.131-0.45-0.456-0.669-0.569-0.206-0.775 0.137-0.825 0.137s-0.087 0.125-0.087 0.125 0.631-2.65-1.212-2.65c-1.15 0-2.75 1.262-3.537 2.406-0.494 0.269-1.563 0.85-2.688 1.469-0.431 0.238-0.875 0.481-1.294 0.712-0.031-0.031-0.056-0.063-0.088-0.094-2.237-2.387-6.369-4.075-6.194-7.281 0.063-1.169 0.469-4.238 7.944-7.963 6.125-3.050 11.025-2.212 11.869-0.35 1.212 2.656-2.619 7.6-8.981 8.313-2.425 0.269-3.7-0.669-4.019-1.019-0.331-0.369-0.381-0.387-0.506-0.319-0.206 0.113-0.075 0.438 0 0.631 0.188 0.494 0.969 1.369 2.3 1.806 1.169 0.381 4.012 0.594 7.45-0.738 3.863-1.488 6.869-5.631 5.988-9.1-0.9-3.525-6.744-4.681-12.275-2.719-3.294 1.169-6.856 3.006-9.419 5.4-3.044 2.85-3.531 5.331-3.331 6.369 0.713 3.681 5.787 6.081 7.819 7.856-0.1 0.056-0.194 0.106-0.281 0.156-1.019 0.506-4.888 2.531-5.856 4.669-1.094 2.425 0.181 4.162 1.019 4.4 2.612 0.725 5.287-0.581 6.725-2.725s1.262-4.944 0.6-6.219c-0.006-0.019-0.019-0.031-0.025-0.050 0.262-0.156 0.531-0.313 0.8-0.469 0.519-0.306 1.025-0.587 1.469-0.831-0.25 0.675-0.431 1.488-0.525 2.663-0.113 1.375 0.456 3.156 1.194 3.856 0.325 0.306 0.719 0.313 0.963 0.313 0.863 0 1.25-0.712 1.681-1.563 0.531-1.038 1-2.244 1-2.244s-0.587 3.262 1.019 3.262c0.587 0 1.175-0.756 1.438-1.144v0.006s0.012-0.025 0.044-0.075c0.063-0.094 0.094-0.15 0.094-0.15v-0.019c0.238-0.406 0.756-1.337 1.538-2.875 1.012-1.988 1.981-4.469 1.981-4.469s0.087 0.606 0.387 1.613c0.175 0.594 0.544 1.244 0.837 1.875-0.238 0.325-0.381 0.512-0.381 0.512s0 0.006 0.006 0.012c-0.188 0.25-0.4 0.519-0.619 0.781-0.8 0.95-1.75 2.038-1.875 2.35-0.15 0.369-0.113 0.644 0.175 0.856 0.212 0.163 0.587 0.188 0.981 0.156 0.719-0.050 1.225-0.225 1.469-0.337 0.387-0.137 0.837-0.356 1.262-0.663 0.781-0.575 1.256-1.4 1.212-2.488-0.025-0.6-0.219-1.2-0.456-1.762 0.069-0.1 0.144-0.206 0.212-0.313 1.238-1.806 2.194-3.788 2.194-3.788s0.087 0.606 0.387 1.613c0.15 0.506 0.444 1.063 0.712 1.606-1.163 0.944-1.881 2.038-2.131 2.756-0.462 1.331-0.1 1.931 0.581 2.069 0.306 0.063 0.744-0.081 1.069-0.219 0.406-0.137 0.894-0.356 1.35-0.694 0.781-0.575 1.538-1.381 1.488-2.475-0.019-0.494-0.156-0.988-0.337-1.462 0.981-0.413 2.256-0.637 3.881-0.45 3.481 0.406 4.163 2.581 4.031 3.488-0.131 0.913-0.862 1.413-1.106 1.563s-0.319 0.206-0.3 0.319c0.031 0.163 0.144 0.156 0.35 0.119 0.288-0.050 1.825-0.738 1.894-2.419 0.1-2.125-1.944-4.462-5.563-4.444zM7.612 27.288c-1.15 1.256-2.763 1.731-3.456 1.331-0.744-0.431-0.45-2.281 0.969-3.619 0.862-0.813 1.975-1.563 2.713-2.025 0.169-0.1 0.412-0.25 0.713-0.431 0.050-0.031 0.075-0.044 0.075-0.044 0.056-0.038 0.119-0.069 0.181-0.106 0.519 1.9 0.019 3.575-1.194 4.894zM16.012 21.575c-0.4 0.981-1.244 3.481-1.756 3.35-0.438-0.113-0.706-2.019-0.088-3.894 0.313-0.944 0.975-2.069 1.369-2.506 0.631-0.706 1.325-0.931 1.487-0.65 0.219 0.369-0.762 3.087-1.012 3.7zM22.95 24.887c-0.169 0.087-0.325 0.144-0.4 0.1-0.056-0.031 0.069-0.15 0.069-0.15s0.869-0.931 1.212-1.356c0.2-0.25 0.431-0.544 0.681-0.869 0 0.031 0.006 0.063 0.006 0.1-0.006 1.119-1.081 1.875-1.569 2.175zM28.3 23.669c-0.125-0.087-0.106-0.381 0.313-1.294 0.163-0.356 0.538-0.956 1.188-1.531 0.075 0.238 0.119 0.462 0.119 0.675-0.006 1.406-1.012 1.931-1.619 2.15z"></path>
</symbol>
<symbol id="icon-twitter-square" viewBox="0 0 28 32">
<title>twitter-square</title>
<path d="M25 2h-22c-1.656 0-3 1.344-3 3v22c0 1.656 1.344 3 3 3h22c1.656 0 3-1.344 3-3v-22c0-1.656-1.344-3-3-3zM21.944 11.925c0.012 0.175 0.012 0.356 0.012 0.531 0 5.419-4.125 11.662-11.662 11.662-2.325 0-4.481-0.675-6.294-1.837 0.331 0.038 0.65 0.050 0.987 0.050 1.919 0 3.681-0.65 5.088-1.75-1.8-0.038-3.313-1.219-3.831-2.844 0.631 0.094 1.2 0.094 1.85-0.075-1.875-0.381-3.281-2.031-3.281-4.025v-0.050c0.544 0.306 1.181 0.494 1.85 0.519-1.107-0.744-1.825-1.991-1.825-3.406 0-0.002 0-0.005 0-0.007v0c0-0.762 0.2-1.463 0.556-2.069 2.019 2.487 5.050 4.112 8.45 4.287-0.581-2.781 1.5-5.037 4-5.037 1.181 0 2.244 0.494 2.994 1.294 0.925-0.175 1.813-0.519 2.6-0.988-0.306 0.95-0.95 1.75-1.8 2.256 0.825-0.088 1.625-0.319 2.363-0.637-0.556 0.819-1.256 1.544-2.056 2.125z"></path>
</symbol>
<symbol id="icon-twitter" viewBox="0 0 32 32">
<title>twitter</title>
<path d="M28.711 9.482c0.020 0.284 0.020 0.569 0.020 0.853 0 8.67-6.599 18.66-18.66 18.66-3.716 0-7.168-1.076-10.071-2.944 0.528 0.061 1.036 0.081 1.584 0.081 3.066 0 5.888-1.035 8.142-2.802-2.883-0.061-5.3-1.949-6.132-4.548 0.406 0.061 0.812 0.102 1.239 0.102 0.589 0 1.178-0.081 1.726-0.223-3.005-0.609-5.259-3.249-5.259-6.437v-0.081c0.873 0.487 1.888 0.792 2.964 0.832-1.766-1.178-2.924-3.188-2.924-5.462 0-1.218 0.325-2.335 0.893-3.31 3.228 3.98 8.081 6.579 13.523 6.863-0.101-0.487-0.162-0.995-0.162-1.502 0-3.614 2.924-6.558 6.558-6.558 1.888 0 3.594 0.792 4.792 2.071 1.482-0.284 2.904-0.832 4.162-1.584-0.487 1.523-1.523 2.802-2.883 3.614 1.32-0.142 2.599-0.508 3.777-1.015-0.893 1.299-2.010 2.457-3.289 3.391z"></path>
</symbol>
<symbol id="icon-user-alt" viewBox="0 0 32 32">
<title>user-alt</title>
<path d="M16 18c4.969 0 9-4.031 9-9s-4.031-9-9-9-9 4.031-9 9 4.031 9 9 9zM24 20h-3.444c-1.387 0.637-2.931 1-4.556 1s-3.162-0.363-4.556-1h-3.444c-4.419 0-8 3.581-8 8v1c0 1.656 1.344 3 3 3h26c1.656 0 3-1.344 3-3v-1c0-4.419-3.581-8-8-8z"></path>
</symbol>
<symbol id="icon-user" viewBox="0 0 28 32">
<title>user</title>
<path d="M19.6 19c-1.794 0-2.656 1-5.6 1s-3.8-1-5.6-1c-4.638 0-8.4 3.762-8.4 8.4v1.6c0 1.656 1.344 3 3 3h22c1.656 0 3-1.344 3-3v-1.6c0-4.637-3.762-8.4-8.4-8.4zM25 29h-22v-1.6c0-2.975 2.425-5.4 5.4-5.4 0.912 0 2.394 1 5.6 1 3.231 0 4.681-1 5.6-1 2.975 0 5.4 2.425 5.4 5.4v1.6zM14 18c4.969 0 9-4.031 9-9s-4.031-9-9-9-9 4.031-9 9 4.031 9 9 9zM14 3c3.306 0 6 2.694 6 6s-2.694 6-6 6-6-2.694-6-6 2.694-6 6-6z"></path>
</symbol>
<symbol id="icon-user2" viewBox="0 0 32 32">
<title>user2</title>
<path d="M18 22.082v-1.649c2.203-1.241 4-4.337 4-7.432 0-4.971 0-9-6-9s-6 4.029-6 9c0 3.096 1.797 6.191 4 7.432v1.649c-6.784 0.555-12 3.888-12 7.918h28c0-4.030-5.216-7.364-12-7.918z"></path>
</symbol>
<symbol id="icon-whatsapp-square" viewBox="0 0 28 32">
<title>whatsapp-square</title>
<path d="M14 7.675c-4.544 0-8.238 3.694-8.244 8.238 0 1.556 0.438 3.075 1.263 4.381l0.194 0.313-0.831 3.038 3.119-0.819 0.3 0.181c1.262 0.75 2.713 1.15 4.194 1.15h0.006c4.538 0 8.331-3.694 8.331-8.238 0-2.2-0.95-4.269-2.506-5.825-1.563-1.563-3.625-2.419-5.825-2.419zM18.844 19.45c-0.206 0.581-1.194 1.106-1.669 1.175-0.788 0.119-1.4 0.056-2.969-0.619-2.481-1.075-4.106-3.575-4.231-3.738s-1.012-1.344-1.012-2.563 0.637-1.819 0.869-2.069c0.225-0.25 0.494-0.313 0.662-0.313 0.162 0 0.331 0 0.475 0.006 0.15 0.006 0.356-0.056 0.556 0.425 0.206 0.494 0.7 1.713 0.762 1.838s0.106 0.269 0.019 0.431c-0.475 0.95-0.981 0.912-0.725 1.35 0.956 1.644 1.912 2.213 3.369 2.944 0.25 0.125 0.394 0.106 0.537-0.063 0.144-0.163 0.619-0.725 0.781-0.969 0.163-0.25 0.331-0.206 0.556-0.125s1.444 0.681 1.694 0.806 0.413 0.188 0.475 0.288c0.056 0.119 0.056 0.619-0.15 1.194zM25 2h-22c-1.656 0-3 1.344-3 3v22c0 1.656 1.344 3 3 3h22c1.656 0 3-1.344 3-3v-22c0-1.656-1.344-3-3-3zM13.994 25.825c-1.662 0-3.294-0.419-4.737-1.206l-5.256 1.381 1.406-5.137c-0.869-1.5-1.325-3.206-1.325-4.956 0.006-5.463 4.45-9.906 9.913-9.906 2.65 0 5.137 1.031 7.012 2.906 1.869 1.875 2.994 4.363 2.994 7.012 0 5.463-4.544 9.906-10.006 9.906z"></path>
</symbol>
<symbol id="icon-whatsapp" viewBox="0 0 28 32">
<title>whatsapp</title>
<path d="M23.806 6.069c-2.619-2.625-6.106-4.069-9.813-4.069-7.65 0-13.875 6.225-13.875 13.875 0 2.444 0.637 4.831 1.85 6.938l-1.969 7.188 7.356-1.931c2.025 1.106 4.306 1.688 6.631 1.688h0.006c7.644 0 14.006-6.225 14.006-13.875 0-3.706-1.575-7.188-4.194-9.813zM13.994 27.419c-2.075 0-4.106-0.556-5.875-1.606l-0.419-0.25-4.362 1.144 1.162-4.256-0.275-0.438c-1.156-1.837-1.763-3.956-1.763-6.137 0-6.356 5.175-11.531 11.538-11.531 3.081 0 5.975 1.2 8.15 3.381s3.512 5.075 3.506 8.156c0 6.362-5.306 11.537-11.662 11.537zM20.319 18.781c-0.344-0.175-2.050-1.012-2.369-1.125-0.319-0.119-0.55-0.175-0.781 0.175s-0.894 1.125-1.1 1.363c-0.2 0.231-0.406 0.262-0.75 0.087-2.037-1.019-3.375-1.819-4.719-4.125-0.356-0.613 0.356-0.569 1.019-1.894 0.113-0.231 0.056-0.431-0.031-0.606s-0.781-1.881-1.069-2.575c-0.281-0.675-0.569-0.581-0.781-0.594-0.2-0.012-0.431-0.012-0.662-0.012s-0.606 0.088-0.925 0.431c-0.319 0.35-1.213 1.188-1.213 2.894s1.244 3.356 1.412 3.587c0.175 0.231 2.444 3.731 5.925 5.238 2.2 0.95 3.063 1.031 4.162 0.869 0.669-0.1 2.050-0.837 2.337-1.65s0.288-1.506 0.2-1.65c-0.081-0.156-0.313-0.244-0.656-0.413z"></path>
</symbol>
<symbol id="icon-wordpress-simple" viewBox="0 0 32 32">
<title>wordpress-simple</title>
<path d="M16 0.5c-8.544 0-15.5 6.95-15.5 15.5 0 8.544 6.956 15.5 15.5 15.5s15.5-6.956 15.5-15.5c0-8.55-6.956-15.5-15.5-15.5zM2.063 16c0-2.019 0.431-3.938 1.206-5.669l6.65 18.212c-4.65-2.262-7.856-7.031-7.856-12.544zM16 29.938c-1.369 0-2.688-0.2-3.938-0.569l4.181-12.15 4.281 11.738c0.031 0.069 0.063 0.131 0.1 0.194-1.444 0.506-3 0.788-4.625 0.788zM17.919 9.469c0.837-0.044 1.594-0.131 1.594-0.131 0.75-0.088 0.663-1.194-0.087-1.15 0 0-2.256 0.175-3.713 0.175-1.369 0-3.669-0.175-3.669-0.175-0.75-0.044-0.838 1.106-0.088 1.15 0 0 0.713 0.088 1.463 0.131l2.169 5.95-3.050 9.144-5.075-15.094c0.837-0.044 1.594-0.131 1.594-0.131 0.75-0.088 0.662-1.194-0.088-1.15 0 0-2.256 0.175-3.713 0.175-0.263 0-0.569-0.006-0.9-0.019 2.494-3.781 6.775-6.281 11.644-6.281 3.625 0 6.931 1.388 9.412 3.656-0.063-0.006-0.119-0.013-0.181-0.013-1.369 0-2.337 1.194-2.337 2.475 0 1.15 0.663 2.119 1.369 3.269 0.531 0.925 1.15 2.119 1.15 3.844 0 1.194-0.456 2.575-1.063 4.506l-1.387 4.644-5.044-14.975zM23.006 28.044l4.256-12.306c0.794-1.988 1.063-3.575 1.063-4.994 0-0.512-0.031-0.988-0.094-1.431 1.087 1.988 1.706 4.263 1.706 6.688 0 5.144-2.788 9.631-6.931 12.044z"></path>
</symbol>
<symbol id="icon-wordpress" viewBox="0 0 32 32">
<title>wordpress</title>
<path d="M3.856 10.588l6.344 17.375c-4.438-2.15-7.494-6.7-7.494-11.963 0-1.931 0.413-3.756 1.15-5.412zM24.975 15.331c0-1.644-0.587-2.781-1.094-3.669-0.675-1.094-1.306-2.025-1.306-3.119 0-1.225 0.925-2.362 2.231-2.362 0.056 0 0.113 0.006 0.175 0.013-2.369-2.169-5.519-3.494-8.981-3.494-4.644 0-8.731 2.381-11.113 5.994 0.313 0.012 0.606 0.019 0.856 0.019 1.388 0 3.544-0.169 3.544-0.169 0.719-0.044 0.8 1.012 0.088 1.094 0 0-0.719 0.081-1.519 0.125l4.844 14.4 2.912-8.725-2.069-5.675c-0.719-0.044-1.394-0.125-1.394-0.125-0.719-0.044-0.631-1.137 0.081-1.094 0 0 2.194 0.169 3.5 0.169 1.387 0 3.544-0.169 3.544-0.169 0.719-0.044 0.8 1.012 0.087 1.094 0 0-0.719 0.081-1.519 0.125l4.806 14.294 1.325-4.431c0.563-1.837 1-3.156 1-4.294zM16.231 17.163l-3.988 11.594c1.194 0.35 2.45 0.544 3.756 0.544 1.55 0 3.031-0.269 4.412-0.756-0.038-0.056-0.069-0.119-0.094-0.181l-4.088-11.2zM27.669 9.619c0.056 0.425 0.087 0.875 0.087 1.369 0 1.35-0.25 2.863-1.012 4.762l-4.063 11.744c3.956-2.306 6.613-6.587 6.613-11.494 0-2.313-0.587-4.487-1.625-6.381zM31.5 16c0 8.55-6.956 15.5-15.5 15.5-8.55 0-15.5-6.956-15.5-15.5 0-8.55 6.95-15.5 15.5-15.5 8.544 0 15.5 6.95 15.5 15.5zM30.788 16c0-8.156-6.637-14.787-14.788-14.787-8.156 0-14.787 6.631-14.787 14.787s6.638 14.788 14.787 14.788c8.156 0 14.788-6.631 14.788-14.788z"></path>
</symbol>
</defs>
</svg>
